<svg width="24" height="24" viewBox="0 0 24 24" fill="none" xmlns="http://www.w3.org/2000/svg">
<path d="M12 13.5C14.21 13.5 16 11.71 16 9.5C16 9.22 15.78 9 15.5 9C15.22 9 15 9.22 15 9.5C15 11.15 13.65 12.5 12 12.5C10.35 12.5 9 11.15 9 9.5C9 9.22 8.78 9 8.5 9C8.22 9 8 9.22 8 9.5C8 11.71 9.79 13.5 12 13.5Z" fill="#58595B"/>
<path d="M19.5 7H16C16 4.79 14.21 3 12 3C9.79 3 8 4.79 8 7H4.5C4.22 7 4 7.22 4 7.5V19.5C4 19.78 4.22 20 4.5 20H19.5C19.78 20 20 19.78 20 19.5V7.5C20 7.22 19.78 7 19.5 7ZM12 4C13.65 4 15 5.35 15 7H9C9 5.35 10.35 4 12 4ZM19 19H5V8H19V19Z" fill="#58595B"/>
</svg>
