<svg width="24" height="24" viewBox="0 0 24 24" fill="none" xmlns="http://www.w3.org/2000/svg">
<g clip-path="url(#clip0_2674_150)">
<path d="M19.9001 19.19L14.5601 13.85C16.5501 11.5 16.4601 7.97 14.2401 5.74999C11.9001 3.41 8.09012 3.41 5.75012 5.74999C3.41012 8.08999 3.41012 11.9 5.75012 14.24C6.92012 15.41 8.46012 15.99 9.99012 15.99C11.3701 15.99 12.7301 15.49 13.8401 14.55L19.1801 19.89C19.2801 19.99 19.4101 20.04 19.5301 20.04C19.6501 20.04 19.7901 19.99 19.8801 19.89C20.0901 19.7 20.0901 19.38 19.9001 19.19ZM6.46012 13.53C4.51012 11.58 4.51012 8.41 6.46012 6.46C8.41012 4.50999 11.5801 4.50999 13.5301 6.46C15.4801 8.41 15.4801 11.58 13.5301 13.53C11.5801 15.48 8.41012 15.48 6.46012 13.53Z" fill="#58595B"/>
</g>
<defs>
<clipPath id="clip0_2674_150">
<rect width="16.04" height="16.04" fill="white" transform="translate(4 4)"/>
</clipPath>
</defs>
</svg>
